# xmcd CD database file
#
# Track frame offsets:
#	150
#	55537
#	81810
#	157965
#	174510
#
# Disc length: 3110 seconds
#
# Revision: 0
# Processed by: cddbd v1.5.2PL0 Copyright (c) Steve Scherf et al.
# Submitted via: CDex 1.51
#
DISCID=2d0c2405
DTITLE=European Broadcasting Union Big Band - Jazz Concert Amsterband 1994 CD1 of 2
DYEAR=1994
DGENRE=Jazz
TTITLE0=Riffs and rhythms
TTITLE1=Alow walk
TTITLE2=Brothers
TTITLE3=The dancing herd
TTITLE4=Tusks and trunks and VI Tail end
EXTD=YEAR: 1994
EXTT0=
EXTT1=
EXTT2=
EXTT3=
EXTT4=
PLAYORDER=
